<svg width="56" height="56" fill="none" xmlns="http://www.w3.org/2000/svg"><path d="M39.563 36.25H16.437a1.06 1.06 0 01-.882-.48c-3.052-4.601-3.286-13.452-3.303-14.766a7.288 7.288 0 01-.002-.156c0-.605.477-1.097 1.066-1.098h.002c.588 0 1.066.49 1.068 1.094 0 .007 0 .072.003.187.094 3.125 2.596 5.637 5.657 5.637 3.12 0 5.66-2.61 5.66-5.82 0-.606.478-1.098 1.067-1.098h2.454c.59 0 1.068.492 1.068 1.098 0 3.21 2.539 5.82 5.66 5.82 3.064 0 5.567-2.516 5.657-5.645l.002-.179c.002-.605.48-1.094 1.068-1.094h.002c.589.001 1.066.492 1.066 1.098l-.001.156c-.018 1.314-.252 10.165-3.303 14.767-.2.3-.53.479-.883.479z" fill="#F79C6E"/><path d="M42.684 19.75h-.002c-.588 0-1.066.49-1.068 1.094 0 .007 0 .069-.003.179-.09 3.128-2.593 5.645-5.657 5.645-3.12 0-5.66-2.61-5.66-5.82 0-.606-.478-1.098-1.067-1.098H28v16.5h11.563c.353 0 .683-.18.882-.48 3.052-4.6 3.286-13.453 3.303-14.766l.002-.156c0-.605-.477-1.097-1.066-1.098z" fill="#F6844B"/><path d="M28 16a3.754 3.754 0 00-3.75 3.75A3.754 3.754 0 0028 23.5a3.754 3.754 0 003.75-3.75A3.754 3.754 0 0028 16z" fill="#F6844B"/><path d="M28 16v7.5a3.754 3.754 0 003.75-3.75A3.755 3.755 0 0028 16z" fill="#F47434"/><path d="M13.375 18.25C11.515 18.25 10 19.932 10 22s1.514 3.75 3.375 3.75S16.75 24.068 16.75 22s-1.514-3.75-3.375-3.75z" fill="#F6844B"/><path d="M42.625 18.25c-1.861 0-3.375 1.682-3.375 3.75s1.514 3.75 3.375 3.75C44.485 25.75 46 24.068 46 22s-1.514-3.75-3.375-3.75z" fill="#F47434"/><path d="M39.672 40H16.328c-.595 0-1.078-.506-1.078-1.13V35.5h25.5v3.37c0 .624-.483 1.13-1.078 1.13z" fill="#F6844B"/><path d="M28 40h11.672c.595 0 1.078-.506 1.078-1.13V35.5H28V40z" fill="#F47434"/><rect x=".5" y=".5" width="55" height="55" rx="7.5" stroke="url(#paint0_linear)"/><defs><linearGradient id="paint0_linear" x1="56" y1="56" x2="-11" y2="4.5" gradientUnits="userSpaceOnUse"><stop stop-color="#F6844B"/><stop offset="1" stop-color="#2C2E59"/></linearGradient></defs></svg>