<svg width="56" height="56" fill="none" xmlns="http://www.w3.org/2000/svg"><rect x=".5" y=".5" width="55" height="55" rx="7.5" stroke="url(#paint0_linear)"/><g clip-path="url(#clip0)"><path d="M12.517 32.316a.866.866 0 01-.255-.616v-3.903a.87.87 0 111.74 0V31.7a.87.87 0 01-1.485.616zm4.243 0a.926.926 0 01-.276-.596l-.217-3.686a.714.714 0 01.774-.773.949.949 0 01.87.87l.217 3.686c.026.454-.32.8-.774.773a.925.925 0 01-.595-.274z" fill="#3BA7F5"/><path d="M18.226 27.767a.841.841 0 00-.841-.841H13.12a.841.841 0 00-.84.84v2.899h5.945v-2.898z" fill="#259DF4"/><path d="M42.074 28.737a5.142 5.142 0 00-.52-2.21 5.03 5.03 0 00.482-2.203c-.023-2.805-2.325-5.107-5.13-5.13-2.083-.018-4.181 1.043-6.235 3.154a19.087 19.087 0 00-1.568 1.841l-14.662-.123a2.19 2.19 0 00-2.212 2.213l.011 1.407.007.825 16.89.14a20.1 20.1 0 001.602 1.873c2.09 2.143 4.206 3.241 6.29 3.258a4.992 4.992 0 005.045-5.045zm-5.524-2.253c.005.669.307 1.3.828 1.73a.638.638 0 01.233.486.614.614 0 01-.62.62c-1.199-.01-2.794-1.455-3.951-2.865 1.133-1.39 2.704-2.808 3.904-2.798a.63.63 0 01.443.186c.12.12.185.277.187.445a.61.61 0 01-.225.48 2.184 2.184 0 00-.799 1.716z" fill="#1B99F3"/><path d="M37.357 28.337c.145.12.228.295.229.48a.614.614 0 01-.616.617c-1.188-.005-2.761-1.43-3.901-2.82l-20.606-.086.006 1.392.003.816 16.723.069c.39.518.93 1.182 1.579 1.848 2.06 2.112 4.15 3.19 6.214 3.2a4.993 4.993 0 005.017-5.017 5.068 5.068 0 00-.507-2.187l-4.953-.02a2.22 2.22 0 00.812 1.708z" fill="#3BA7F5"/></g><defs><linearGradient id="paint0_linear" x1="56" y1="56" x2="-11" y2="4.5" gradientUnits="userSpaceOnUse"><stop stop-color="#3BA7F5"/><stop offset="1" stop-color="#2C2E59"/></linearGradient><clipPath id="clip0"><path fill="#fff" transform="rotate(45 7.778 35.85)" d="M0 0h32v32H0z"/></clipPath></defs></svg>