<svg width="82" height="40" fill="none" xmlns="http://www.w3.org/2000/svg"><path d="M75.469 28.703c0 1.156-1.781-1.155-2.969-1.155-1.187 0-3.562 2.31-3.562 1.155 2.375-2.31 2.4-6.933 3.325-6.933.925 0 1.425 4.622 3.206 6.933z" fill="#F5443B"/><path d="M13.61 24.272c0 .818-.191 1.524-.574 2.116-.366.574-.976 1.105-1.829 1.593-.575.348-1.245.61-2.011.784-.767.174-1.542.261-2.325.261-.802 0-1.794-.261-2.979-.784-.853-.418-1.532-.914-2.037-1.489-.488-.574-.732-1.201-.732-1.88 0-.47.105-.81.314-1.02.209-.226.548-.339 1.019-.339.243 0 .496.105.757.314.261.191.418.383.47.574.244.714.671 1.263 1.28 1.646.61.366 1.368.549 2.273.549 1.045 0 1.916-.192 2.613-.575.714-.383 1.07-.897 1.07-1.541 0-.627-.382-1.185-1.149-1.672a7.716 7.716 0 00-2.35-1.02c-1.15-.313-2.17-.687-3.057-1.123-.923-.452-1.611-1.01-2.064-1.672-.453-.661-.68-1.358-.68-2.09 0-.679.236-1.367.706-2.063.47-.714 1.028-1.228 1.672-1.541.348-.175.94-.357 1.776-.55.854-.208 1.472-.313 1.855-.313.505 0 1.063.061 1.672.183.61.122 1.106.296 1.49.523.766.435 1.332.827 1.697 1.175.366.349.549.784.549 1.307 0 .313-.122.592-.366.835-.226.244-.627.366-1.202.366-.139 0-.278-.06-.418-.183a5.597 5.597 0 01-.522-.548c-.279-.366-.549-.61-.81-.732a10.828 10.828 0 00-1.15-.287 6.308 6.308 0 00-1.306-.157c-.418 0-.853.087-1.306.261a3.08 3.08 0 00-1.15.758c-.295.313-.443.68-.443 1.097 0 .349.156.653.47.915.33.243.723.444 1.175.6.523.21 1.089.392 1.699.549.8.244 1.454.47 1.959.68a8.656 8.656 0 011.515.73c.853.506 1.472 1.028 1.855 1.568.383.523.575 1.254.575 2.195zm3.776-12.043c.61.052 1.14.217 1.594.496.452.261.679.662.679 1.202 0 .4-.192.722-.575.966-.366.226-.81.34-1.332.34-.505 0-.854-.13-1.045-.392a1.354 1.354 0 01-.288-.81c0-.523.053-.958.157-1.306.122-.348.392-.514.81-.496zm2.09 11.572v.758c0 .68.017 1.323.052 1.933.053.592.113 1.193.183 1.803-.017.174-.148.357-.392.548-.244.174-.461.262-.653.262-.33 0-.67-.061-1.019-.183-.33-.14-.53-.305-.6-.497a8.18 8.18 0 01-.157-1.489c0-1.428-.044-3.03-.13-4.807-.07-1.567-.105-2.664-.105-3.291 0-.314.156-.584.47-.81a1.67 1.67 0 01.992-.34c.506 0 .854.114 1.046.34.209.226.313.583.313 1.071v4.702zM34.65 26.99c.087.034.227.078.418.13.192.052.331.105.418.157.087.052.13.13.13.235.018.418-.139.766-.47 1.045a1.698 1.698 0 01-1.123.392c-.679 0-1.21-.183-1.593-.549-.383-.366-.662-.923-.836-1.672-.07-.296-.105-.705-.105-1.228 0-.296.018-.775.052-1.436.035-.697.053-1.254.053-1.672 0-.61-.174-1.141-.523-1.594-.33-.47-.8-.705-1.41-.705-.366 0-.75.113-1.15.34-.4.208-.68.47-.836.783a5.724 5.724 0 00-.548 1.646 18.077 18.077 0 00-.288 3.265c0 .54.009.958.026 1.254v.418c.018.192 0 .375-.052.549a1.152 1.152 0 01-.209.444c-.087.087-.226.157-.418.209-.174.07-.34.105-.496.105-.244 0-.549-.105-.915-.314-.365-.209-.574-.444-.627-.705l-.026-.444c0-.157.018-.34.053-.549.209-1.22.313-2.282.313-3.187 0-.4-.009-.714-.026-.94l-.026-1.228c0-.418-.105-.819-.314-1.202-.209-.4-.453-.601-.731-.601a.987.987 0 00-.366.105 1.288 1.288 0 01-.392.078c-.174 0-.365-.087-.574-.261-.192-.174-.288-.357-.288-.549 0-.366.122-.662.366-.888.261-.21.514-.375.758-.497.26-.121.557-.182.888-.182.278 0 .505.026.679.078.174.052.41.165.705.34.157.087.34.278.549.574.209.296.383.714.522 1.254.453-.836 1.01-1.42 1.672-1.75.68-.348 1.542-.522 2.587-.522.4 0 .827.13 1.28.391.47.262.87.566 1.201.915.314.383.575.862.784 1.436.21.558.314 1.063.314 1.516 0 .26-.018.688-.053 1.28-.052.47-.078.966-.078 1.489 0 1.219.235 1.968.705 2.246zm12.786 2.116c-.592 0-1.045-.088-1.358-.262-.314-.191-.653-.54-1.02-1.045-.452.4-1.131.723-2.037.967-.888.244-1.654.366-2.299.366-1.062 0-1.924-.288-2.586-.863-.644-.592-.967-1.454-.967-2.586 0-.487.131-.931.392-1.332a4.266 4.266 0 011.071-1.097 6.04 6.04 0 011.724-.784c.68-.192 1.298-.287 1.855-.287.94 0 1.777.087 2.508.26v-.025c0-.94-.235-1.585-.705-1.933-.453-.366-1.184-.549-2.195-.549-.644 0-1.201.287-1.672.862-.174.226-.54.34-1.097.34a.688.688 0 01-.627-.34 1.623 1.623 0 01-.183-.731c0-.505.21-.94.627-1.307a4.192 4.192 0 011.568-.81c.61-.191 1.175-.287 1.698-.287.505 0 1.106.105 1.802.314.697.209 1.263.487 1.698.836.523.453.924.984 1.202 1.593a4.32 4.32 0 01.444 1.96c0 .226-.017.566-.052 1.018-.035.523-.052.95-.052 1.28 0 .157-.018.357-.052.601a7.332 7.332 0 00-.053.784c0 .226.07.444.21.653.139.21.33.383.574.523.227.122.374.252.444.391.07.14.105.297.105.47 0 .175-.114.392-.34.654-.209.244-.418.366-.627.366zm-5.225-4.99c-.679 0-1.28.13-1.802.392-.523.26-.784.723-.784 1.384 0 .331.113.61.34.836.243.227.505.34.783.34.75 0 1.376-.079 1.881-.235.505-.157 1.115-.444 1.829-.862.087-.279.14-.67.157-1.176 0-.192.008-.34.026-.444-.94-.157-1.75-.235-2.43-.235zm7.869-3.919a.501.501 0 01-.366-.157.624.624 0 01-.157-.418c0-.505.165-.888.496-1.149.331-.279.74-.418 1.228-.418.68 0 1.263.183 1.75.549.506.348.758.853.758 1.515 0 .174-.035.836-.104 1.985-.07 1.324-.105 2.203-.105 2.639 0 .61.113 1.106.34 1.489.243.366.618.548 1.123.548.975 0 1.724-.54 2.247-1.62.54-1.096.897-2.437 1.07-4.022.07-.697.175-1.428.314-2.195.07-.418.166-.723.288-.914.121-.192.357-.287.705-.287.226 0 .488.052.784.156.313.105.514.244.6.418.105.262.157.549.157.862 0 .436-.06 1.002-.183 1.698a17.24 17.24 0 00-.287 2.273c-.035.732.078 1.498.34 2.3.26.8.635 1.323 1.123 1.567.557.278.836.53.836.757 0 .366-.13.653-.392.862-.261.21-.514.314-.758.314-.644 0-1.227-.235-1.75-.706a4.057 4.057 0 01-1.097-1.75 9.85 9.85 0 01-1.071 1.385c-.331.348-.758.644-1.28.888-.523.226-1.167.34-1.933.34-.906 0-1.733-.323-2.482-.967-.732-.645-1.097-1.75-1.097-3.318 0-.435.008-.897.026-1.384.035-.488.052-.836.052-1.045.052-.627.078-1.202.078-1.724a.495.495 0 00-.182-.392.501.501 0 00-.366-.157c-.105 0-.227.017-.366.052a2.413 2.413 0 01-.34.026zm26.872 2.586c.105-.383.218-.905.34-1.567a51.96 51.96 0 01.418-1.776c.104-.4.244-.74.418-1.02.191-.313.357-.522.496-.626a.881.881 0 01.497-.157c.905 0 1.358.348 1.358 1.045 0 .348-.14 1.002-.418 1.96-.923 2.786-1.585 4.946-1.986 6.478-.174.645-.435 1.14-.783 1.49-.349.33-.819.495-1.41.495-.297 0-.602-.139-.915-.418a3.644 3.644 0 01-.732-1.07l-.287-.706a144.652 144.652 0 01-1.097-2.847 9.854 9.854 0 01-.444-1.83l-.236.837a66.731 66.731 0 01-1.306 4.18c-.226.662-.505 1.14-.836 1.436-.33.28-.757.419-1.28.419a1.65 1.65 0 01-.836-.21c-.226-.139-.444-.374-.653-.705-.278-.453-.548-1.062-.81-1.829-.243-.766-.6-1.959-1.07-3.579a32.94 32.94 0 01-.628-2.194c-.191-.784-.287-1.332-.287-1.646 0-.365.096-.653.287-.862.192-.209.47-.313.836-.313.47 0 .802.096.993.287.192.174.366.444.522.81.088.627.28 1.515.575 2.665l.575 2.455c.035.192.14.592.313 1.202l.21.758a24.94 24.94 0 00.966-2.352 51.81 51.81 0 00.862-2.769c.017-.07.192-.67.523-1.802.226-.366.426-.636.6-.81.175-.192.349-.287.523-.287.348 0 .644.113.888.34.261.208.453.47.575.783.209.679.392 1.297.549 1.855.07.226.226.775.47 1.645.26.854.496 1.576.705 2.169.209.592.383 1.01.523 1.254l.992-3.188z" fill="url(#paint0_linear)"/><path d="M20.319 13.787c0 1.203-.975 1.815-2.177 1.815-1.203 0-1.815-.612-1.815-1.815 0-1.202.612-1.814 1.815-1.814 1.202 0 2.177.612 2.177 1.814z" fill="#F5443B"/><defs><linearGradient id="paint0_linear" x1="41" y1="0" x2="41" y2="39.186" gradientUnits="userSpaceOnUse"><stop stop-color="#C7CAFE"/><stop offset="1" stop-color="#3D408F"/></linearGradient></defs></svg>