<svg width="56" height="56" fill="none" xmlns="http://www.w3.org/2000/svg"><rect x=".5" y=".5" width="55" height="55" rx="7.5" stroke="url(#paint0_linear)"/><path d="M40.34 28.7c2.401-2.037 3.602-3.056 3.284-4.016-.318-.96-1.89-1.062-5.031-1.265l-3.78-.244c-.919-.059-1.379-.088-1.73-.344-.351-.255-.522-.683-.863-1.538l-1.447-3.63c-1.18-2.96-1.77-4.44-2.787-4.44s-1.607 1.48-2.787 4.439l-1.447 3.63c-.341.857-.512 1.284-.863 1.54-.351.255-.811.284-1.73.344l-3.768.243c-3.136.203-4.704.305-5.022 1.264-.319.96.878 1.978 3.271 4.015l2.948 2.508c.693.59 1.04.885 1.17 1.294.13.41.017.85-.208 1.732l-.965 3.785c-.788 3.095-1.183 4.642-.36 5.24.824.598 2.174-.256 4.872-1.964l3.284-2.079c.78-.493 1.17-.74 1.605-.74.435 0 .825.247 1.604.74l3.285 2.08c2.698 1.707 4.047 2.561 4.871 1.963.824-.598.43-2.145-.36-5.24l-.964-3.782c-.225-.883-.337-1.325-.207-1.734.13-.41.478-.705 1.173-1.294l2.953-2.507z" fill="#3BF5BD"/><path d="M37.388 31.207c-.695.59-1.042.884-1.173 1.294-.13.41-.018.85.207 1.734l.964 3.782c.79 3.095 1.184 4.642.36 5.24-.824.598-2.173-.256-4.871-1.964l-3.494-2.21c-.682-.433-1.023-.649-1.21-.987-.185-.337-.185-.741-.185-1.549V22.56c0-3.092 0-4.639.372-5.063a1.5 1.5 0 011.809-.347c.503.256 1.076 1.692 2.22 4.565.178.444.266.665.404.839a1.5 1.5 0 00.647.47c.208.077.446.093.923.123l4.232.273c3.142.203 4.713.305 5.03 1.265.319.96-.882 1.979-3.282 4.016l-2.953 2.507z" fill="#0CF3AD"/><defs><linearGradient id="paint0_linear" x1="56" y1="56" x2="-11" y2="4.5" gradientUnits="userSpaceOnUse"><stop stop-color="#3BF5BD"/><stop offset="1" stop-color="#2C2E59"/></linearGradient></defs></svg>